HIERARCHY
ROOT Hips
{
	OFFSET 0.000000 0.000000 0.000000
	CHANNELS 6 Xposition Yposition Zposition Xrotation Yrotation Zrotation
	JOINT LeftUpLeg_virtual
	{
		OFFSET 0.000000 0.000000 0.000000
		CHANNELS 3 Xrotation Yrotation Zrotation
		JOINT LeftUpLeg
		{
			OFFSET 11.394100 -6.187798 -0.413800
			CHANNELS 3 Xrotation Yrotation Zrotation
			JOINT LeftLeg
			{
				OFFSET 0.430247 -32.302673 3.732800
				CHANNELS 3 Xrotation Yrotation Zrotation
				JOINT LeftFoot
				{
					OFFSET -0.430247 -48.264931 -6.423300
					CHANNELS 3 Xrotation Yrotation Zrotation
					JOINT LeftToeBase
					{
						OFFSET 4.230900 -16.068199 23.438400
						CHANNELS 3 Xrotation Yrotation Zrotation
						JOINT LeftToe_End
						{
							OFFSET 4.510700 0.695400 19.974600
							CHANNELS 3 Xrotation Yrotation Zrotation
							End Site
							{
								OFFSET 0 0 0
							}
						}
					}
				}
			}
		}
	}
	JOINT RightUpLeg_virtual
	{
		OFFSET 0.000000 0.000000 0.000000
		CHANNELS 3 Xrotation Yrotation Zrotation
		JOINT RightUpLeg
		{
			OFFSET -11.333700 -6.187798 -0.413800
			CHANNELS 3 Xrotation Yrotation Zrotation
			JOINT RightLeg
			{
				OFFSET -0.430392 -32.302628 3.733000
				CHANNELS 3 Xrotation Yrotation Zrotation
				JOINT RightFoot
				{
					OFFSET 0.430392 -48.264973 -6.423500
					CHANNELS 3 Xrotation Yrotation Zrotation
					JOINT RightToeBase
					{
						OFFSET -4.230900 -16.068199 23.438400
						CHANNELS 3 Xrotation Yrotation Zrotation
						JOINT RightToe_End
						{
							OFFSET -4.510700 0.695400 19.974600
							CHANNELS 3 Xrotation Yrotation Zrotation
							End Site
							{
								OFFSET 0 0 0
							}
						}
					}
				}
			}
		}
	}
	JOINT Spine_virtual
	{
		OFFSET 0.000000 0.000000 0.000000
		CHANNELS 3 Xrotation Yrotation Zrotation
		JOINT Spine
		{
			OFFSET -0.002400 12.777504 0.315300
			CHANNELS 3 Xrotation Yrotation Zrotation
			JOINT Spine1
			{
				OFFSET -0.002067 5.816869 0.032633
				CHANNELS 3 Xrotation Yrotation Zrotation
				JOINT Spine1_split
				{
					OFFSET -0.002067 5.816869 0.032633
					CHANNELS 3 Xrotation Yrotation Zrotation
					JOINT Spine2
					{
						OFFSET -0.002067 5.816869 0.032633
						CHANNELS 3 Xrotation Yrotation Zrotation
						JOINT Neck_virtual
						{
							OFFSET 0.000000 0.000000 0.000000
							CHANNELS 3 Xrotation Yrotation Zrotation
							JOINT Neck
							{
								OFFSET -0.003700 21.199493 -0.826900
								CHANNELS 3 Xrotation Yrotation Zrotation
								JOINT Head
								{
									OFFSET 0.000000 20.442200 4.834800
									CHANNELS 3 Xrotation Yrotation Zrotation
									JOINT HeadTop_End
									{
										OFFSET 0.000000 34.668396 4.968400
										CHANNELS 3 Xrotation Yrotation Zrotation
										End Site
										{
											OFFSET 0 0 0
										}
									}
								}
							}
						}
						JOINT LeftShoulder_virtual
						{
							OFFSET 0.000000 0.000000 0.000000
							CHANNELS 3 Xrotation Yrotation Zrotation
							JOINT LeftShoulder
							{
								OFFSET 3.288150 8.794197 -1.372250
								CHANNELS 3 Xrotation Yrotation Zrotation
								JOINT LeftShoulder_split
								{
									OFFSET 3.288150 8.794197 -1.372250
									CHANNELS 3 Xrotation Yrotation Zrotation
									JOINT LeftArm
									{
										OFFSET 11.953299 -2.279007 -0.146200
										CHANNELS 3 Xrotation Yrotation Zrotation
										JOINT LeftForeArm
										{
											OFFSET 18.448900 0.000000 0.000000
											CHANNELS 3 Xrotation Yrotation Zrotation
											JOINT LeftHand
											{
												OFFSET 29.527798 0.000000 0.000000
												CHANNELS 3 Xrotation Yrotation Zrotation
												End Site
												{
													OFFSET 0 0 0
												}
											}
										}
									}
								}
							}
						}
						JOINT RightShoulder_virtual
						{
							OFFSET 0.000000 0.000000 0.000000
							CHANNELS 3 Xrotation Yrotation Zrotation
							JOINT RightShoulder
							{
								OFFSET -3.249400 8.794197 -1.372250
								CHANNELS 3 Xrotation Yrotation Zrotation
								JOINT RightShoulder_split
								{
									OFFSET -3.249400 8.794197 -1.372250
									CHANNELS 3 Xrotation Yrotation Zrotation
									JOINT RightArm
									{
										OFFSET -11.953299 -2.279007 -0.146200
										CHANNELS 3 Xrotation Yrotation Zrotation
										JOINT RightForeArm
										{
											OFFSET -18.448900 0.000000 0.000000
											CHANNELS 3 Xrotation Yrotation Zrotation
											JOINT RightHand
											{
												OFFSET -29.527802 0.000000 0.000000
												CHANNELS 3 Xrotation Yrotation Zrotation
												End Site
												{
													OFFSET 0 0 0
												}
											}
										}
									}
								}
							}
						}
					}
				}
			}
		}
	}
}
MOTION
Frames: 4
Frame Time: 0.03333333
2.956924 93.166611 2.858749 0.000000 0.000000 0.000000 0.309700 -47.887191 -2.652458 -37.265348 1.026764 12.092093 38.027973 -14.737433 4.688991 -1.069472 -5.876723 -4.588670 -11.086894 -5.528905 4.337963 0.000000 0.000000 0.000000 -0.998576 -45.623587 -2.396711 -2.477593 0.050562 -11.274679 19.862981 -10.501644 -3.867151 -19.350542 -0.653122 26.809268 -5.941704 2.440452 0.443089 0.000000 0.000000 0.000000 -4.066260 -47.030063 -4.175757 11.300574 7.270320 0.702722 10.939835 9.891152 -3.859693 -1.061378 2.039586 0.699228 0.000000 0.000000 0.000000 12.075994 9.618666 -4.594813 -17.189211 -3.246049 3.045176 2.677634 23.444518 -5.719564 0.000000 0.000000 0.000000 13.463712 8.953312 -3.399095 0.409895 -2.893077 -10.392038 0.599121 1.456212 2.845516 -10.997901 -5.817008 -57.653176 8.942858 -58.696829 -0.352820 0.000000 0.000000 0.000000 10.424967 9.883276 -2.937107 1.026787 16.983600 6.366824 3.735044 0.485118 2.362000 -18.584586 -21.564702 68.733724 3.766961 48.388806 -2.862725 0.000000 0.000000 0.000000 
3.975637 93.005768 1.870094 0.000000 0.000000 0.000000 2.111048 -49.467812 -1.337086 -39.467323 -0.303884 12.498754 37.569090 -13.610303 4.062985 -0.808907 -5.003023 -3.375781 -8.910415 -5.014566 3.497666 0.000000 0.000000 0.000000 0.280083 -46.484031 -1.521657 -3.355608 -0.545278 -12.087417 21.863463 -9.576707 -3.691958 -19.076881 -0.242242 27.138355 -4.242744 1.855244 0.723495 0.000000 0.000000 0.000000 -2.154033 -48.014563 -2.882079 11.375096 7.555712 0.743479 11.236255 9.682515 -3.848569 -0.242854 0.770568 1.397105 0.000000 0.000000 0.000000 12.418456 9.466822 -4.634330 -17.146980 -1.992916 3.459242 2.246645 24.682948 -6.155045 0.000000 0.000000 0.000000 13.605415 8.733680 -3.629382 0.099636 -4.115822 -9.157916 -0.888698 -1.422129 0.172813 -11.681305 -4.668275 -57.187084 6.417954 -52.408199 -1.629683 0.000000 0.000000 0.000000 10.448475 9.752120 -3.064119 0.605285 16.879802 6.629201 5.075333 0.582116 2.238848 -16.101637 -21.520171 68.740294 3.306934 50.941409 -2.626531 0.000000 0.000000 0.000000 
5.406969 91.235939 -0.006847 0.000000 0.000000 0.000000 4.899751 -50.765220 1.613453 -46.498384 -2.240101 12.629518 40.098729 -11.492488 3.346541 0.995764 -2.749769 -3.605741 -2.146174 -3.971526 1.306161 0.000000 0.000000 0.000000 2.864209 -47.132858 0.958816 -8.997558 -0.413316 -13.613702 27.872697 -9.292746 -3.236756 -18.648156 -0.272091 26.395590 -2.300297 0.864951 0.929449 0.000000 0.000000 0.000000 1.331201 -48.881137 0.325001 11.538533 7.747139 0.461081 11.823314 9.207601 -3.891686 0.005488 -0.507622 0.945653 0.000000 0.000000 0.000000 13.218473 8.929936 -4.772803 -18.656843 -0.830645 4.561291 0.995146 27.026396 -6.911774 0.000000 0.000000 0.000000 13.927014 8.239993 -3.921058 -0.370825 -5.797266 -7.280810 -2.543143 -4.732334 -2.912225 -12.918877 -7.753830 -55.126303 7.667842 -44.887057 0.063978 0.000000 0.000000 0.000000 10.937648 9.287024 -3.302408 -0.193841 16.640108 7.192517 5.531835 1.491768 2.224135 -13.520929 -19.678704 67.214696 2.036211 53.115939 -1.640632 0.000000 0.000000 0.000000 
6.950971 88.126289 -2.343281 0.000000 0.000000 0.000000 8.939019 -51.287207 6.143295 -56.279328 -4.455987 11.411109 44.841257 -9.063653 2.851415 3.806759 0.031420 -5.842733 3.036695 -3.101727 -0.387032 0.000000 0.000000 0.000000 6.788015 -47.891244 5.158336 -19.064289 0.525586 -15.852796 37.424051 -9.695401 -2.547807 -18.813582 -0.507613 24.394287 -0.088635 -0.432982 0.638298 0.000000 0.000000 0.000000 6.349953 -49.235818 5.410504 11.540760 7.718148 -0.140288 12.557883 8.451458 -3.930691 -0.819275 -1.851580 0.444698 0.000000 0.000000 0.000000 14.233567 8.128585 -4.911629 -21.522375 0.190644 6.028570 -0.429406 30.065045 -7.834394 0.000000 0.000000 0.000000 14.356035 7.522615 -4.124256 -0.903148 -7.333294 -5.574141 -3.168200 -6.654716 -5.603264 -15.359099 -13.308699 -52.142911 10.278411 -38.341680 2.544213 0.000000 0.000000 0.000000 11.822633 8.489520 -3.584497 -1.186060 16.490839 8.212248 4.895888 3.272070 2.484158 -11.230900 -16.251349 64.292175 0.080983 54.113772 0.166092 0.000000 0.000000 0.000000 
